<svg xmlns="http://www.w3.org/2000/svg" viewBox="0 0 821.66 64.31"><defs><style>.cls-1{fill:none;}</style></defs><title>Asset 1</title><g id="Layer_2" data-name="Layer 2"><g id="Layer_2-2" data-name="Layer 2"><path class="cls-1" d="M523.59,41.66c6.75,3.6,15.17,6.59,27.9,6.52,8.21,0,16.61-2.22,25.17-5.55-8.21-4.2-17-8-23.56-8.78C541.8,32.47,528.92,38.72,523.59,41.66Z"/><path class="cls-1" d="M268.56,33.85c-6.59.81-15.35,4.58-23.56,8.78,8.57,3.33,17,5.5,25.17,5.55,12.73.07,21.15-2.92,27.9-6.52C292.74,38.72,279.85,32.47,268.56,33.85Z"/><path d="M768.3,45.07C730.73,45.89,705,7,669.83,6.87,639.16,6.8,610.16,28,582.9,40c-8.23-5-16.64-9.95-30.7-9-12.25.8-24,7.46-28.79,10.55-9.79-5.25-16.09-11.74-27.06-11.88-20.36-.25-32,14.33-50.54,13.8-16.9-.48-19.1-10.41-19.19-16.85-.06-4.54,3.18-16.25,16.52-16.25,9,0,12,5.17,12,7.55s-3.4,3.36-4.71,4.84-1.46,7.27,2.88,7.27,8.49-5.58,8.17-11.9C461,9.46,454.1.46,438.29,0a29.64,29.64,0,0,0-27.47,15.79A29.64,29.64,0,0,0,383.36,0c-15.8.44-22.75,9.44-23.19,18.14-.32,6.32,3.82,11.9,8.17,11.9s4.22-5.75,2.88-7.27-4.71-2.47-4.71-4.84,3-7.55,12-7.55c13.34,0,16.58,11.7,16.52,16.25C395,33.08,392.75,43,375.85,43.49c-18.57.53-30.18-14.05-50.54-13.8-11,.14-17.27,6.62-27.06,11.88-4.84-3.09-16.55-9.75-28.79-10.55-14.07-.92-22.48,4-30.7,9C211.5,28,182.49,6.8,151.83,6.87c-35.2.08-60.91,39-98.48,38.2C23.72,44.42,0,22.54,0,22.54S21.74,49.75,60.47,49.42c34.86-.3,57.43-34.74,90.17-34.49,28.87.22,54.53,17.26,80.54,29.67-8,4.93-16.38,10.07-29.52,11-15.41,1-48.94-19.46-64.8-26.9s-29,.56-29.18,15.52,17.51,23.95,28.73,18.56,9.13-13.32,7.63-16-5.13-4.84-6.88-2.24.15,3.74,2.39,5.69-.3,4.19-2.39,5.69-7.93,2.1-12.27-2.1c-7.18-7.93-3.89-17.06,4.94-18.71s25.74,10.63,48.79,21,37.56,2.69,43.7-.6c2.41-1.29,7.8-4.62,14.33-8.28,13.16,5.88,26.47,10.2,40.4,10.2,24.5,0,35.57-16.6,50.59-16.6s26.48,15.69,53.75,15.69c15.85,0,25.08-6,29.45-14.34,4.37,8.36,13.6,14.34,29.45,14.34,27.27,0,38.73-15.69,53.75-15.69s26.08,16.59,50.59,16.6c13.92,0,27.24-4.32,40.4-10.2,6.54,3.67,11.93,7,14.33,8.28C605.48,58.7,620,66.33,643,56s40-22.6,48.79-21S704,45.83,696.77,53.76c-4.34,4.19-10.18,3.59-12.27,2.1s-4.64-3.74-2.39-5.69,4.08-3.19,2.39-5.69-5.39-.45-6.88,2.24-3.59,10.63,7.63,16S714.13,59.15,714,44.18s-13.32-23-29.18-15.52S635.41,56.6,620,55.56c-13.15-.89-21.5-6-29.52-11,26-12.4,51.67-29.44,80.54-29.67,32.74-.25,55.31,34.19,90.17,34.49,38.73.33,60.47-26.87,60.47-26.87S797.94,44.42,768.3,45.07ZM270.17,48.18C262,48.14,253.56,46,245,42.63c8.21-4.2,17-8,23.56-8.78,11.29-1.38,24.18,4.86,29.51,7.81C291.32,45.26,282.9,48.25,270.17,48.18Zm281.32,0c-12.73.07-21.15-2.92-27.9-6.52,5.33-2.95,18.21-9.19,29.51-7.81,6.59.81,15.35,4.58,23.56,8.78C568.09,46,559.7,48.14,551.49,48.18Z"/></g></g></svg>